<svg aria-hidden="true" version="1.1" xmlns="http://www.w3.org/2000/svg" xmlns:xlink="http://www.w3.org/1999/xlink">
  <defs>

    <symbol id="icon-spinner" viewBox="0 0 24 24">
      <path d="M11 2v4c0 0.552 0.448 1 1 1s1-0.448 1-1v-4c0-0.552-0.448-1-1-1s-1 0.448-1 1zM11 18v4c0 0.552 0.448 1 1 1s1-0.448 1-1v-4c0-0.552-0.448-1-1-1s-1 0.448-1 1zM4.223 5.637l2.83 2.83c0.391 0.391 1.024 0.391 1.414 0s0.391-1.024 0-1.414l-2.83-2.83c-0.391-0.391-1.024-0.391-1.414 0s-0.391 1.024 0 1.414zM15.533 16.947l2.83 2.83c0.391 0.391 1.024 0.391 1.414 0s0.391-1.024 0-1.414l-2.83-2.83c-0.391-0.391-1.024-0.391-1.414 0s-0.391 1.024 0 1.414zM2 13h4c0.552 0 1-0.448 1-1s-0.448-1-1-1h-4c-0.552 0-1 0.448-1 1s0.448 1 1 1zM18 13h4c0.552 0 1-0.448 1-1s-0.448-1-1-1h-4c-0.552 0-1 0.448-1 1s0.448 1 1 1zM5.637 19.777l2.83-2.83c0.391-0.391 0.391-1.024 0-1.414s-1.024-0.391-1.414 0l-2.83 2.83c-0.391 0.391-0.391 1.024 0 1.414s1.024 0.391 1.414 0zM16.947 8.467l2.83-2.83c0.391-0.391 0.391-1.024 0-1.414s-1.024-0.391-1.414 0l-2.83 2.83c-0.391 0.391-0.391 1.024 0 1.414s1.024 0.391 1.414 0z"></path>
    </symbol>

    <symbol id="icon-random" viewBox="0 0 16 16">
      <path fill-rule="evenodd" d="M0 3.5A.5.5 0 0 1 .5 3H1c2.202 0 3.827 1.24 4.874 2.418.49.552.865 1.102 1.126 1.532.26-.43.636-.98 1.126-1.532C9.173 4.24 10.798 3 13 3v1c-1.798 0-3.173 1.01-4.126 2.082A9.624 9.624 0 0 0 7.556 8a9.624 9.624 0 0 0 1.317 1.918C9.828 10.99 11.204 12 13 12v1c-2.202 0-3.827-1.24-4.874-2.418A10.595 10.595 0 0 1 7 9.05c-.26.43-.636.98-1.126 1.532C4.827 11.76 3.202 13 1 13H.5a.5.5 0 0 1 0-1H1c1.798 0 3.173-1.01 4.126-2.082A9.624 9.624 0 0 0 6.444 8a9.624 9.624 0 0 0-1.317-1.918C4.172 5.01 2.796 4 1 4H.5a.5.5 0 0 1-.5-.5z"/> <path d="M13 5.466V1.534a.25.25 0 0 1 .41-.192l2.36 1.966c.12.1.12.284 0 .384l-2.36 1.966a.25.25 0 0 1-.41-.192zm0 9v-3.932a.25.25 0 0 1 .41-.192l2.36 1.966c.12.1.12.284 0 .384l-2.36 1.966a.25.25 0 0 1-.41-.192z"/>
    </symbol>

    <symbol id="icon-trending" viewBox="0 0 24 24" fill="none" stroke="currentColor" stroke-width="2" stroke-linecap="round" stroke-linejoin="round">
      <polyline points="23 6 13.5 15.5 8.5 10.5 1 18"></polyline>
      <polyline points="17 6 23 6 23 12"></polyline>
    </symbol>

    <symbol id="icon-search" viewBox="0 0 16 16"> 
    <path d="M11.742 10.344a6.5 6.5 0 1 0-1.397 1.398h-.001c.03.04.062.078.098.115l3.85 3.85a1 1 0 0 0 1.415-1.414l-3.85-3.85a1.007 1.007 0 0 0-.115-.1zM12 6.5a5.5 5.5 0 1 1-11 0 5.5 5.5 0 0 1 11 0z"/>
    </symbol>

    <symbol id="icon-circle" viewBox="0 0 100 100" >
      <circle  stroke="none" cx="50" cy="50" r="50">
      </circle>
    </symbol>

    <symbol id="icon-alert-circle" viewBox="0 0 24 24">
      <path d="M23 12c0-3.037-1.232-5.789-3.222-7.778s-4.741-3.222-7.778-3.222-5.789 1.232-7.778 3.222-3.222 4.741-3.222 7.778 1.232 5.789 3.222 7.778 4.741 3.222 7.778 3.222 5.789-1.232 7.778-3.222 3.222-4.741 3.222-7.778zM21 12c0 2.486-1.006 4.734-2.636 6.364s-3.878 2.636-6.364 2.636-4.734-1.006-6.364-2.636-2.636-3.878-2.636-6.364 1.006-4.734 2.636-6.364 3.878-2.636 6.364-2.636 4.734 1.006 6.364 2.636 2.636 3.878 2.636 6.364zM11 8v4c0 0.552 0.448 1 1 1s1-0.448 1-1v-4c0-0.552-0.448-1-1-1s-1 0.448-1 1zM12 17c0.552 0 1-0.448 1-1s-0.448-1-1-1-1 0.448-1 1 0.448 1 1 1z"></path>
    </symbol>

    <symbol id="icon-arrow-repeat" viewBox="0 0 16 16"> 
      <path d="M11.534 7h3.932a.25.25 0 0 1 .192.41l-1.966 2.36a.25.25 0 0 1-.384 0l-1.966-2.36a.25.25 0 0 1 .192-.41zm-11 2h3.932a.25.25 0 0 0 .192-.41L2.692 6.23a.25.25 0 0 0-.384 0L.342 8.59A.25.25 0 0 0 .534 9z"/> 
      <path fill-rule="evenodd" d="M8 3c-1.552 0-2.94.707-3.857 1.818a.5.5 0 1 1-.771-.636A6.002 6.002 0 0 1 13.917 7H12.9A5.002 5.002 0 0 0 8 3zM3.1 9a5.002 5.002 0 0 0 8.757 2.182.5.5 0 1 1 .771.636A6.002 6.002 0 0 1 2.083 9H3.1z"/>

  </defs>
</svg>
